<?xml version="1.0" encoding="utf-8"?><svg xmlns="http://www.w3.org/2000/svg" xmlns:xlink="http://www.w3.org/1999/xlink"><symbol viewBox="0 0 444.531 444.531" id="chevronLeft" xmlns="http://www.w3.org/2000/svg"><path d="M213.13 222.409L351.88 83.653c7.05-7.043 10.567-15.657 10.567-25.841 0-10.183-3.518-18.793-10.567-25.835l-21.409-21.416C323.432 3.521 314.817 0 304.637 0s-18.791 3.521-25.841 10.561L92.649 196.425c-7.044 7.043-10.566 15.656-10.566 25.841s3.521 18.791 10.566 25.837l186.146 185.864c7.05 7.043 15.66 10.564 25.841 10.564s18.795-3.521 25.834-10.564l21.409-21.412c7.05-7.039 10.567-15.604 10.567-25.697 0-10.085-3.518-18.746-10.567-25.978L213.13 222.409z"/></symbol><symbol viewBox="0 0 444.819 444.819" id="chevronRight" xmlns="http://www.w3.org/2000/svg"><path d="M352.025 196.712L165.884 10.848C159.029 3.615 150.469 0 140.187 0s-18.842 3.619-25.697 10.848L92.792 32.264c-7.044 7.043-10.566 15.604-10.566 25.692 0 9.897 3.521 18.56 10.566 25.981L231.545 222.41 92.786 361.168c-7.042 7.043-10.564 15.604-10.564 25.693 0 9.896 3.521 18.562 10.564 25.98l21.7 21.413c7.043 7.043 15.612 10.564 25.697 10.564 10.089 0 18.656-3.521 25.697-10.564L352.025 248.39c7.046-7.423 10.571-16.084 10.571-25.981.001-10.088-3.525-18.654-10.571-25.697z"/></symbol><symbol viewBox="0 0 329.269 329" id="close" xmlns="http://www.w3.org/2000/svg"><path d="M194.8 164.77L323.013 36.555c8.343-8.34 8.343-21.825 0-30.164-8.34-8.34-21.825-8.34-30.164 0L164.633 134.605 36.422 6.391c-8.344-8.34-21.824-8.34-30.164 0-8.344 8.34-8.344 21.824 0 30.164l128.21 128.215L6.259 292.984c-8.344 8.34-8.344 21.825 0 30.164a21.266 21.266 0 0015.082 6.25c5.46 0 10.922-2.09 15.082-6.25l128.21-128.214 128.216 128.214a21.273 21.273 0 0015.082 6.25c5.46 0 10.922-2.09 15.082-6.25 8.343-8.34 8.343-21.824 0-30.164zm0 0"/></symbol></svg>